<?xml version="1.0" encoding="UTF-8" standalone="no"?>
<svg
   version="1.1"
   id="svg1596"
   width="39.635471"
   height="24.270618"
   viewBox="0 0 190.25026 116.49897"
   xmlns="http://www.w3.org/2000/svg"
   >
  <g
     id="g10894"
     transform="translate(-1.44,-74.8848)">
    <path
       style="fill:#000080;stroke-width:0.365019"
       d="m 3.7630204,149.80174 c -0.74118,-1.3849 -2.28234,-13.12013 -2.32176,-17.67914 -0.0482,-5.57316 1.29451,-13.29245 2.56661,-14.75573 0.75621,-0.86986 0.86242,-0.89568 1.42164,-0.34565 0.34367,0.33802 1.05945,2.62109 1.65938,5.29278 1.79786,8.00642 1.81916,8.53088 0.66429,16.35652 -1.44428,9.78663 -1.44101,9.76758 -1.86166,10.88174 -0.45256,1.19868 -1.55156,1.3275 -2.1285,0.2495 z"
       id="use10786" />
    <path
       style="fill:#000080;stroke-width:0.365019"
       d="m 16.20102,156.30511 c -0.39081,-0.95809 -0.97248,-5.3083 -1.31852,-9.86093 -0.13374,-1.75964 -0.3878,-3.28872 -0.56456,-3.39797 -0.17677,-0.10925 -0.3357,-1.46194 -0.35318,-3.00599 -0.0175,-1.54404 -0.15392,-4.28568 -0.3032,-6.09252 -0.28374,-3.43438 0.19177,-12.61108 0.71873,-13.87072 0.16797,-0.40152 0.40585,-1.63346 0.52861,-2.73765 0.61753,-5.55449 1.31402,-7.6654 2.5292,-7.6654 0.99135,0 1.64613,1.08886 2.05477,3.41696 2.66917,15.20651 2.75445,17.236 1.24458,29.61726 -0.53862,4.41673 -1.11344,9.23058 -1.2774,10.69744 -0.16395,1.46686 -0.49487,2.90412 -0.73538,3.19392 -0.68374,0.82385 -2.13665,0.65437 -2.52366,-0.29439 z"
       id="use10788" />
    <path
       style="fill:#000080;stroke-width:0.365019"
       d="m 29.6458,159.08162 c -0.29149,-0.34907 -0.67931,-2.37142 -0.92749,-4.8365 -0.23458,-2.33012 -0.60512,-5.87917 -0.82342,-7.88678 -0.2183,-2.0076 -0.5602,-5.15998 -0.75979,-7.00529 -0.19959,-1.8453 -0.36289,-5.11694 -0.36289,-7.2703 0,-3.94251 0.88308,-11.88896 1.43723,-12.93301 0.16413,-0.30921 0.41891,-1.60046 0.56619,-2.86944 0.17382,-1.49757 0.50974,-2.54919 0.95728,-2.99672 0.90678,-0.90679 1.28657,-0.87057 2.29634,0.21897 0.62725,0.67681 0.89851,1.51406 1.06371,3.28316 0.12196,1.30607 0.38453,2.67884 0.58349,3.0506 0.19896,0.37176 0.53375,1.93312 0.74396,3.4697 0.21022,1.53657 0.54543,3.98464 0.74491,5.44015 0.24119,1.7598 0.23993,3.80813 -0.004,6.11407 -0.20155,1.90722 -0.53308,5.52091 -0.73673,8.03042 -0.20365,2.5095 -0.53144,5.04172 -0.72842,5.62715 -0.19698,0.58542 -0.45704,2.72078 -0.5779,4.74524 -0.25612,4.28994 -0.97713,6.41848 -2.17414,6.41848 -0.43869,0 -1.02305,-0.26995 -1.29858,-0.59992 z"
       id="use10790" />
    <path
       style="fill:#000080;fill-opacity:1;stroke-width:0.365019"
       d="m 43.23683,159.40777 c -0.67698,-0.56005 -0.88132,-1.56109 -1.65785,-8.12167 -1.95114,-16.4844 -2.02061,-20.72249 -0.58804,-35.87446 1.27809,-13.51795 1.52685,-15.27795 2.26352,-16.014621 0.8502,-0.85019 1.49322,-0.85302 2.25623,-0.0101 0.66179,0.731261 1.82176,8.996591 2.43976,17.384441 0.19148,2.59875 0.54814,5.30901 0.7926,6.02281 0.61424,1.79357 0.61849,15.2289 0.005,16.33508 -0.24442,0.44084 -0.54796,2.57621 -0.67452,4.74525 -0.12657,2.16905 -0.34917,4.10798 -0.49469,4.30874 -0.14552,0.20074 -0.55639,2.64624 -0.91305,5.4344 -0.49295,3.85361 -0.81148,5.23238 -1.32814,5.74905 -0.84133,0.84132 -1.12671,0.84688 -2.10099,0.0408 z"
       id="use10792" />
    <path
       style="fill:#000080;stroke-width:0.365019"
       d="m 56.80156,159.64627 c -0.51213,-0.18945 -0.86073,-0.71291 -0.99683,-1.49685 -0.41789,-2.40696 -1.65671,-12.76711 -1.89077,-15.81207 -0.13195,-1.71684 -0.37953,-3.2078 -0.55016,-3.31325 -0.40689,-0.25148 -0.40454,-16.47313 0.002,-16.72466 0.17199,-0.10627 0.42778,-2.12815 0.56843,-4.49303 0.58739,-9.87555 1.91689,-23.058761 2.38194,-23.619101 0.81325,-0.97991 2.03332,-0.70227 2.6898,0.61211 0.60704,1.21541 2.00416,15.111401 2.81668,28.015201 0.20856,3.31254 0.54268,6.73981 0.74245,7.61615 0.21408,0.93913 0.22958,1.76343 0.0379,2.0076 -0.179,0.22786 -0.43272,2.05685 -0.56377,4.06446 -0.32568,4.98859 -2.36442,20.94551 -2.82876,22.14015 -0.42422,1.09149 -1.24586,1.43365 -2.40921,1.00329 z"
       id="use10794" />
    <path
       style="fill:#000080;stroke-width:0.365019"
       d="m 70.33283,159.50785 c -0.63817,-0.44698 -0.84244,-1.17718 -1.19981,-4.28898 -0.23688,-2.06264 -0.57175,-4.07878 -0.74414,-4.4803 -0.17237,-0.40152 -0.41405,-2.76393 -0.53699,-5.2498 -0.12298,-2.48588 -0.41808,-4.86763 -0.65583,-5.29278 -0.59092,-1.05669 -0.56538,-16.63678 0.0307,-18.65894 0.23669,-0.80304 0.52474,-3.92395 0.64015,-6.93536 0.11539,-3.01141 0.34752,-5.8038 0.51585,-6.20532 0.16829,-0.40152 0.48166,-2.80497 0.69635,-5.34101 0.2147,-2.53604 0.49286,-4.878131 0.61816,-5.204671 0.36499,-0.9512 1.92884,-1.15904 2.72022,-0.36153 0.56866,0.57307 0.83118,2.16636 1.58667,9.629651 2.48287,24.52798 2.48335,24.57557 0.41188,41.24713 -1.14763,9.23632 -1.37866,10.47469 -2.05992,11.04183 -0.93171,0.77563 -1.0503,0.78149 -2.02316,0.10008 z"
       id="use10796" />
    <path
       style="fill:#000080;stroke-width:0.365019"
       d="m 83.89769,159.71174 c -0.76025,-0.29525 -1.15583,-2.10623 -2.03978,-9.33819 -0.19632,-1.60608 -0.51076,-3.82357 -0.69876,-4.92775 -0.18802,-1.10419 -0.54308,-4.6106 -0.78903,-7.79204 -0.45201,-5.8471 -0.13675,-16.15924 0.79965,-26.15473 0.19747,-2.10798 0.51774,-5.96805 0.71169,-8.57794 0.68596,-9.230471 1.18997,-13.876121 1.55435,-14.326991 0.2028,-0.25095 0.82253,-0.45629 1.37714,-0.45629 1.68049,0 2.04798,1.06336 2.3337,6.75286 0.14117,2.81064 0.41112,5.685161 0.59998,6.387821 0.18884,0.70267 0.50729,3.90571 0.70764,7.11786 0.20036,3.21217 0.60721,8.79696 0.90414,12.41065 0.87034,10.5926 0.73096,14.04071 -1.09181,27.01141 -0.31032,2.20836 -0.76327,5.54928 -1.00651,7.42425 -0.36821,2.83831 -0.58653,3.52582 -1.30398,4.10647 -0.9448,0.76463 -0.9987,0.77413 -2.05842,0.36259 z"
       id="use10798" />
    <path
       style="fill:#000080;stroke-width:0.365019"
       d="m 99.24815,159.34834 c -0.11577,-0.18739 -0.66851,-0.44126 -1.22824,-0.5642 -0.6575,-0.14438 -1.36658,-0.76158 -2.00342,-1.74373 l -0.98573,-1.52022 v -36.31358 c 0,-35.373896 0.0187,-36.351982 0.71854,-37.797646 0.39519,-0.816235 1.03086,-1.648324 1.41259,-1.849084 0.38174,-0.200784 1.34233,-0.722568 2.13467,-1.159575 4.31098,-2.377675 10.0615,-3.535906 17.45284,-3.515233 7.87902,0.02208 12.66925,1.150969 19.44265,4.58211 7.72363,3.91249 13.4523,9.317507 18.00314,16.986027 0.98657,1.66243 1.79376,3.11593 1.79376,3.23 0,0.11409 0.24413,0.725001 0.54251,1.357631 0.29837,0.63262 1.01461,2.62854 1.59162,4.43539 1.03529,3.24191 1.06299,3.28276 2.10388,3.10265 2.14556,-0.37123 12.06951,-0.18869 12.58876,0.2316 0.28137,0.22776 1.04774,0.52877 1.70299,0.66889 3.0316,0.6483 9.74801,5.2435 11.58431,7.92569 4.22764,6.17511 5.30725,9.10539 5.55684,15.08255 0.26342,6.30877 -1.18143,11.37351 -4.47593,15.68955 -0.69488,0.91034 -1.27265,1.77694 -1.28393,1.92577 -0.036,0.4764 -4.28178,3.87482 -6.58794,5.27329 -1.22669,0.74387 -3.07507,1.63045 -4.10753,1.97018 -1.03245,0.33974 -1.95931,0.7323 -2.05969,0.87241 -0.10036,0.14011 -1.57871,0.46924 -3.28517,0.73141 -3.79402,0.58289 -70.265685,0.95766 -70.61152,0.39811 z"
       id="use10800" />
    <path
       style="fill:#000080;stroke-width:0.365019"
       d="m 16.71806,191.04102 c -0.8119,-0.19036 -2.09077,-0.85269 -2.84193,-1.47186 l -1.36573,-1.12575 0.99416,-0.92136 c 0.79431,-0.73613 1.10879,-0.83722 1.56437,-0.50287 1.95272,1.43315 4.31719,1.85489 6.02831,1.07526 0.78178,-0.35621 0.92972,-0.66792 0.92972,-1.95894 0,-1.50323 -0.0392,-1.5516 -1.87377,-2.31403 -1.03057,-0.4283 -2.18891,-0.7787 -2.57407,-0.7787 -0.38517,0 -1.3421,-0.36936 -2.12652,-0.82083 -1.89051,-1.08804 -2.85567,-3.37651 -2.16293,-5.12844 0.99757,-2.52282 2.62318,-3.54124 5.65259,-3.54124 3.22057,0 5.70523,1.43389 4.94527,2.85389 -0.58376,1.09076 -1.45935,1.24279 -2.48975,0.43228 -1.88459,-1.48242 -5.57614,-0.62916 -5.57614,1.28887 0,1.13233 0.95219,1.72863 4.35894,2.72975 3.73553,1.09773 4.76653,2.20958 4.76653,5.1403 0,1.51398 -0.1884,2.37014 -0.63878,2.90272 -1.64933,1.95039 -4.71493,2.81509 -7.59027,2.14096 z"
       id="use10802" />
    <path
       style="fill:#000080;stroke-width:0.365019"
       d="m 33.68977,190.96536 c -1.66355,-0.56469 -2.46394,-1.193 -3.81509,-2.99484 -1.07021,-1.42719 -1.09487,-1.55581 -1.09487,-5.71073 0,-3.536 0.1074,-4.36932 0.63879,-4.95649 0.35133,-0.38823 0.63878,-0.86174 0.63878,-1.05226 0,-0.4524 1.14626,-1.42269 2.5199,-2.13303 1.47005,-0.76019 4.65337,-0.7225 6.2146,0.0736 3.06122,1.56097 4.54724,5.69093 3.72575,10.35462 -0.84814,4.81494 -4.89177,7.75524 -8.82786,6.41913 z m 3.96372,-3.18671 c 1.543,-0.94074 2.2594,-2.67385 2.2594,-5.46593 0,-2.69954 -0.65657,-4.3833 -2.1139,-5.42101 -1.41606,-1.00833 -2.94186,-0.99568 -4.46398,0.037 -2.77683,1.88391 -2.95134,7.94694 -0.2981,10.35658 1.56538,1.42165 2.86604,1.56065 4.61658,0.49337 z"
       id="use10804" />
    <path
       style="fill:#000080;stroke-width:0.365019"
       d="m 51.5935,191.02744 c -0.70266,-0.20721 -1.74951,-0.81553 -2.32632,-1.35182 -1.88471,-1.75227 -2.17276,-2.95967 -2.34437,-9.82677 l -0.15736,-6.29659 h 1.31897 1.31897 v 5.47927 c 0,4.75765 0.0983,5.68832 0.74614,7.06662 1.04539,2.22397 2.8226,2.9403 4.92185,1.98381 1.82032,-0.82939 2.16214,-2.10742 2.29961,-8.59813 l 0.12562,-5.93157 h 1.27572 1.27572 l -0.12082,6.4791 c -0.11141,5.97407 -0.18634,6.59338 -0.96156,7.94543 -1.53244,2.67274 -4.49567,3.89894 -7.37218,3.05065 z"
       id="use10806" />
    <path
       style="fill:#000080;stroke-width:0.365019"
       d="m 65.09921,182.31272 v -8.76046 h 1.25805 c 1.1287,0 1.39951,0.21581 2.63377,2.09887 0.75664,1.15437 1.46352,2.18099 1.57084,2.28137 0.2184,0.20429 0.4223,0.53458 2.64468,4.2841 0.86112,1.45284 1.72992,2.58916 1.93068,2.52515 0.21619,-0.0689 0.40608,-2.37382 0.46579,-5.65294 l 0.10075,-5.53655 h 1.26806 1.26806 v 8.76046 8.76046 h -1.1278 c -1.03635,0 -2.47563,-1.10759 -2.51025,-1.93175 -0.007,-0.15903 -0.17865,-0.48756 -0.38222,-0.73004 -0.20357,-0.2425 -1.55868,-2.31821 -3.01141,-4.61275 -1.45273,-2.29453 -2.84665,-4.23826 -3.0976,-4.31939 -0.35223,-0.11386 -0.45629,1.1913 -0.45629,5.72321 v 5.87072 h -1.27757 -1.27756 z"
       id="use10808" />
    <path
       style="fill:#000080;stroke-width:0.365019"
       d="m 83.71518,182.26488 v -8.80831 l 3.74144,0.17083 c 4.53065,0.20683 6.34411,0.97407 7.82101,3.3088 0.77538,1.22575 1.01006,2.11681 1.13903,4.32481 0.19171,3.28259 -0.27528,4.97309 -1.87815,6.79867 -1.8197,2.07252 -4.24169,3.00572 -7.81193,3.00994 l -3.0114,0.004 z m 7.55642,5.17289 c 0.64272,-0.39187 1.42571,-1.20974 1.73996,-1.81744 1.34976,-2.61014 0.88134,-6.79224 -0.90687,-8.09679 -1.23246,-0.8991 -4.01838,-1.58461 -5.21715,-1.28374 l -0.98225,0.24653 v 5.59 c 0,3.0745 0.10949,5.69951 0.24336,5.83335 0.5428,0.54281 3.97771,0.22637 5.12296,-0.47193 z"
       id="use10810" />
    <path
       style="fill:#000080;stroke-width:0.365019"
       d="m 105.17515,191.07741 c -3.24722,-0.97885 -5.13018,-4.20894 -5.13018,-8.80053 0,-4.98561 2.28721,-8.29149 5.98218,-8.64654 2.69934,-0.25939 4.19774,0.17458 5.66332,1.64018 l 1.31814,1.31814 -1.22517,0.63355 c -1.2017,0.62144 -1.24504,0.61683 -2.26406,-0.24062 -0.70197,-0.59066 -1.49429,-0.87418 -2.44298,-0.87418 -2.04543,0 -3.33684,1.24025 -4.16292,3.99803 -0.64633,2.15768 -0.64718,2.31953 -0.0226,4.32331 0.74823,2.40041 1.84377,3.59428 3.60075,3.92389 1.31389,0.24648 2.52884,-0.21302 3.4898,-1.31987 0.65242,-0.75148 2.06421,-0.402 2.45133,0.60685 0.32175,0.83839 -1.94979,2.89936 -3.74488,3.39776 -1.62821,0.45207 -2.12702,0.45778 -3.51274,0.0398 z"
       id="use10812" />
    <path
       style="fill:#000080;stroke-width:0.365019"
       d="m 117.29694,182.31272 v -8.76046 h 1.27756 1.27757 v 7.30039 7.30038 h 4.38023 4.38022 v 1.46008 1.46007 h -5.65779 -5.65779 z"
       id="use10814" />
    <path
       style="fill:#000080;stroke-width:0.365019"
       d="m 136.16293,191.083 c -1.72155,-0.5435 -3.58415,-2.21781 -4.32145,-3.88459 -2.11696,-4.78573 -0.64225,-11.22735 3.00172,-13.11173 0.5684,-0.29391 1.99428,-0.53442 3.16863,-0.53442 2.76282,0 4.86012,1.26789 6.03283,3.64704 0.6665,1.35216 0.81084,2.26435 0.80913,5.11342 -0.002,3.01645 -0.12052,3.67932 -0.91254,5.09406 -1.61684,2.88817 -5.08399,4.52682 -7.77832,3.67622 z m 3.28706,-2.94524 c 1.72571,-0.60158 2.66824,-2.65729 2.66824,-5.81957 0,-4.13526 -1.44129,-6.21079 -4.31288,-6.21079 -2.20435,0 -4.44758,3.12978 -4.44758,6.20532 0,2.07245 1.22098,4.61025 2.63195,5.47051 1.36696,0.83343 1.92307,0.89041 3.46027,0.35453 z"
       id="use10816" />
    <path
       style="fill:#000080;stroke-width:0.365019"
       d="m 154.0877,191.09338 c -1.72649,-0.54832 -3.12028,-1.7973 -3.99697,-3.58168 -0.76697,-1.56104 -0.8634,-2.33253 -0.98068,-7.84536 l -0.13008,-6.11408 h 1.49688 1.49688 l 0.001,5.93157 c 0.001,5.2844 0.0809,6.06198 0.73021,7.12697 1.48769,2.44004 4.51014,2.47595 6.02793,0.0716 0.86711,-1.37357 0.90591,-1.68547 0.90591,-7.2826 v -5.84756 h 1.30656 1.30655 l -0.12024,6.66161 c -0.11198,6.20428 -0.17788,6.7543 -0.95993,8.01202 -1.46451,2.35527 -4.64447,3.6424 -7.08438,2.86749 z"
       id="use10818" />
    <path
       style="fill:#000080;stroke-width:0.365019"
       d="m 167.66956,182.30733 v -8.85076 l 3.78188,0.16819 c 4.52419,0.20121 6.09744,0.86268 7.71622,3.24422 0.97222,1.43033 1.10937,1.96941 1.22266,4.80592 0.1092,2.73345 0.012,3.41652 -0.67228,4.7295 -0.84818,1.62727 -1.15933,1.93915 -3.47053,3.47867 -1.27325,0.84812 -1.91547,0.99192 -5.01902,1.12379 l -3.55893,0.1512 z m 8.39492,4.56862 c 1.35176,-1.29505 1.97415,-3.42424 1.69419,-5.7957 -0.35842,-3.03605 -1.68368,-4.28791 -5.07823,-4.79695 -2.74102,-0.41102 -2.82077,-0.24106 -2.82077,6.01328 0,2.95337 0.12322,5.49484 0.27375,5.64771 0.15057,0.15288 1.29753,0.2137 2.5488,0.13522 1.90765,-0.11972 2.45383,-0.31407 3.38224,-1.20354 z"
       id="use10820" />
    <path
       style="fill:#000080;stroke-width:0.365019"
       d="m 3.7630204,149.80174 c -0.74118,-1.3849 -2.28234,-13.12013 -2.32176,-17.67914 -0.0482,-5.57316 1.29451,-13.29245 2.56661,-14.75573 0.75621,-0.86986 0.86242,-0.89568 1.42164,-0.34565 0.34367,0.33802 1.05945,2.62109 1.65938,5.29278 1.79786,8.00642 1.81916,8.53088 0.66429,16.35652 -1.44428,9.78663 -1.44101,9.76758 -1.86166,10.88174 -0.45256,1.19868 -1.55156,1.3275 -2.1285,0.2495 z"
       id="use10822" />
    <path
       style="fill:#000080;stroke-width:0.365019"
       d="m 16.20102,156.30511 c -0.39081,-0.95809 -0.97248,-5.3083 -1.31852,-9.86093 -0.13374,-1.75964 -0.3878,-3.28872 -0.56456,-3.39797 -0.17677,-0.10925 -0.3357,-1.46194 -0.35318,-3.00599 -0.0175,-1.54404 -0.15392,-4.28568 -0.3032,-6.09252 -0.28374,-3.43438 0.19177,-12.61108 0.71873,-13.87072 0.16797,-0.40152 0.40585,-1.63346 0.52861,-2.73765 0.61753,-5.55449 1.31402,-7.6654 2.5292,-7.6654 0.99135,0 1.64613,1.08886 2.05477,3.41696 2.66917,15.20651 2.75445,17.236 1.24458,29.61726 -0.53862,4.41673 -1.11344,9.23058 -1.2774,10.69744 -0.16395,1.46686 -0.49487,2.90412 -0.73538,3.19392 -0.68374,0.82385 -2.13665,0.65437 -2.52366,-0.29439 z"
       id="use10824" />
    <path
       style="fill:#000080;stroke-width:0.365019"
       d="m 29.6458,159.08162 c -0.29149,-0.34907 -0.67931,-2.37142 -0.92749,-4.8365 -0.23458,-2.33012 -0.60512,-5.87917 -0.82342,-7.88678 -0.2183,-2.0076 -0.5602,-5.15998 -0.75979,-7.00529 -0.19959,-1.8453 -0.36289,-5.11694 -0.36289,-7.2703 0,-3.94251 0.88308,-11.88896 1.43723,-12.93301 0.16413,-0.30921 0.41891,-1.60046 0.56619,-2.86944 0.17382,-1.49757 0.50974,-2.54919 0.95728,-2.99672 0.90678,-0.90679 1.28657,-0.87057 2.29634,0.21897 0.62725,0.67681 0.89851,1.51406 1.06371,3.28316 0.12196,1.30607 0.38453,2.67884 0.58349,3.0506 0.19896,0.37176 0.53375,1.93312 0.74396,3.4697 0.21022,1.53657 0.54543,3.98464 0.74491,5.44015 0.24119,1.7598 0.23993,3.80813 -0.004,6.11407 -0.20155,1.90722 -0.53308,5.52091 -0.73673,8.03042 -0.20365,2.5095 -0.53144,5.04172 -0.72842,5.62715 -0.19698,0.58542 -0.45704,2.72078 -0.5779,4.74524 -0.25612,4.28994 -0.97713,6.41848 -2.17414,6.41848 -0.43869,0 -1.02305,-0.26995 -1.29858,-0.59992 z"
       id="use10826" />
    <path
       style="fill:#000080;fill-opacity:1;stroke-width:0.365019"
       d="m 43.23683,159.40777 c -0.67698,-0.56005 -0.88132,-1.56109 -1.65785,-8.12167 -1.95114,-16.4844 -2.02061,-20.72249 -0.58804,-35.87446 1.27809,-13.51795 1.52685,-15.27795 2.26352,-16.014621 0.8502,-0.85019 1.49322,-0.85302 2.25623,-0.0101 0.66179,0.731261 1.82176,8.996591 2.43976,17.384441 0.19148,2.59875 0.54814,5.30901 0.7926,6.02281 0.61424,1.79357 0.61849,15.2289 0.005,16.33508 -0.24442,0.44084 -0.54796,2.57621 -0.67452,4.74525 -0.12657,2.16905 -0.34917,4.10798 -0.49469,4.30874 -0.14552,0.20074 -0.55639,2.64624 -0.91305,5.4344 -0.49295,3.85361 -0.81148,5.23238 -1.32814,5.74905 -0.84133,0.84132 -1.12671,0.84688 -2.10099,0.0408 z"
       id="use10828" />
    <path
       style="fill:#000080;stroke-width:0.365019"
       d="m 56.80156,159.64627 c -0.51213,-0.18945 -0.86073,-0.71291 -0.99683,-1.49685 -0.41789,-2.40696 -1.65671,-12.76711 -1.89077,-15.81207 -0.13195,-1.71684 -0.37953,-3.2078 -0.55016,-3.31325 -0.40689,-0.25148 -0.40454,-16.47313 0.002,-16.72466 0.17199,-0.10627 0.42778,-2.12815 0.56843,-4.49303 0.58739,-9.87555 1.91689,-23.058761 2.38194,-23.619101 0.81325,-0.97991 2.03332,-0.70227 2.6898,0.61211 0.60704,1.21541 2.00416,15.111401 2.81668,28.015201 0.20856,3.31254 0.54268,6.73981 0.74245,7.61615 0.21408,0.93913 0.22958,1.76343 0.0379,2.0076 -0.179,0.22786 -0.43272,2.05685 -0.56377,4.06446 -0.32568,4.98859 -2.36442,20.94551 -2.82876,22.14015 -0.42422,1.09149 -1.24586,1.43365 -2.40921,1.00329 z"
       id="use10830" />
    <path
       style="fill:#000080;stroke-width:0.365019"
       d="m 70.33283,159.50785 c -0.63817,-0.44698 -0.84244,-1.17718 -1.19981,-4.28898 -0.23688,-2.06264 -0.57175,-4.07878 -0.74414,-4.4803 -0.17237,-0.40152 -0.41405,-2.76393 -0.53699,-5.2498 -0.12298,-2.48588 -0.41808,-4.86763 -0.65583,-5.29278 -0.59092,-1.05669 -0.56538,-16.63678 0.0307,-18.65894 0.23669,-0.80304 0.52474,-3.92395 0.64015,-6.93536 0.11539,-3.01141 0.34752,-5.8038 0.51585,-6.20532 0.16829,-0.40152 0.48166,-2.80497 0.69635,-5.34101 0.2147,-2.53604 0.49286,-4.878131 0.61816,-5.204671 0.36499,-0.9512 1.92884,-1.15904 2.72022,-0.36153 0.56866,0.57307 0.83118,2.16636 1.58667,9.629651 2.48287,24.52798 2.48335,24.57557 0.41188,41.24713 -1.14763,9.23632 -1.37866,10.47469 -2.05992,11.04183 -0.93171,0.77563 -1.0503,0.78149 -2.02316,0.10008 z"
       id="use10832" />
    <path
       style="fill:#000080;stroke-width:0.365019"
       d="m 83.89769,159.71174 c -0.76025,-0.29525 -1.15583,-2.10623 -2.03978,-9.33819 -0.19632,-1.60608 -0.51076,-3.82357 -0.69876,-4.92775 -0.18802,-1.10419 -0.54308,-4.6106 -0.78903,-7.79204 -0.45201,-5.8471 -0.13675,-16.15924 0.79965,-26.15473 0.19747,-2.10798 0.51774,-5.96805 0.71169,-8.57794 0.68596,-9.230471 1.18997,-13.876121 1.55435,-14.326991 0.2028,-0.25095 0.82253,-0.45629 1.37714,-0.45629 1.68049,0 2.04798,1.06336 2.3337,6.75286 0.14117,2.81064 0.41112,5.685161 0.59998,6.387821 0.18884,0.70267 0.50729,3.90571 0.70764,7.11786 0.20036,3.21217 0.60721,8.79696 0.90414,12.41065 0.87034,10.5926 0.73096,14.04071 -1.09181,27.01141 -0.31032,2.20836 -0.76327,5.54928 -1.00651,7.42425 -0.36821,2.83831 -0.58653,3.52582 -1.30398,4.10647 -0.9448,0.76463 -0.9987,0.77413 -2.05842,0.36259 z"
       id="use10834" />
    <path
       style="fill:#000080;stroke-width:0.365019"
       d="m 99.24815,159.34834 c -0.11577,-0.18739 -0.66851,-0.44126 -1.22824,-0.5642 -0.6575,-0.14438 -1.36658,-0.76158 -2.00342,-1.74373 l -0.98573,-1.52022 v -36.31358 c 0,-35.373896 0.0187,-36.351982 0.71854,-37.797646 0.39519,-0.816235 1.03086,-1.648324 1.41259,-1.849084 0.38174,-0.200784 1.34233,-0.722568 2.13467,-1.159575 4.31098,-2.377675 10.0615,-3.535906 17.45284,-3.515233 7.87902,0.02208 12.66925,1.150969 19.44265,4.58211 7.72363,3.91249 13.4523,9.317507 18.00314,16.986027 0.98657,1.66243 1.79376,3.11593 1.79376,3.23 0,0.11409 0.24413,0.725001 0.54251,1.357631 0.29837,0.63262 1.01461,2.62854 1.59162,4.43539 1.03529,3.24191 1.06299,3.28276 2.10388,3.10265 2.14556,-0.37123 12.06951,-0.18869 12.58876,0.2316 0.28137,0.22776 1.04774,0.52877 1.70299,0.66889 3.0316,0.6483 9.74801,5.2435 11.58431,7.92569 4.22764,6.17511 5.30725,9.10539 5.55684,15.08255 0.26342,6.30877 -1.18143,11.37351 -4.47593,15.68955 -0.69488,0.91034 -1.27265,1.77694 -1.28393,1.92577 -0.036,0.4764 -4.28178,3.87482 -6.58794,5.27329 -1.22669,0.74387 -3.07507,1.63045 -4.10753,1.97018 -1.03245,0.33974 -1.95931,0.7323 -2.05969,0.87241 -0.10036,0.14011 -1.57871,0.46924 -3.28517,0.73141 -3.79402,0.58289 -70.265685,0.95766 -70.61152,0.39811 z"
       id="use10836" />
    <path
       style="fill:#000080;stroke-width:0.365019"
       d="m 16.71806,191.04102 c -0.8119,-0.19036 -2.09077,-0.85269 -2.84193,-1.47186 l -1.36573,-1.12575 0.99416,-0.92136 c 0.79431,-0.73613 1.10879,-0.83722 1.56437,-0.50287 1.95272,1.43315 4.31719,1.85489 6.02831,1.07526 0.78178,-0.35621 0.92972,-0.66792 0.92972,-1.95894 0,-1.50323 -0.0392,-1.5516 -1.87377,-2.31403 -1.03057,-0.4283 -2.18891,-0.7787 -2.57407,-0.7787 -0.38517,0 -1.3421,-0.36936 -2.12652,-0.82083 -1.89051,-1.08804 -2.85567,-3.37651 -2.16293,-5.12844 0.99757,-2.52282 2.62318,-3.54124 5.65259,-3.54124 3.22057,0 5.70523,1.43389 4.94527,2.85389 -0.58376,1.09076 -1.45935,1.24279 -2.48975,0.43228 -1.88459,-1.48242 -5.57614,-0.62916 -5.57614,1.28887 0,1.13233 0.95219,1.72863 4.35894,2.72975 3.73553,1.09773 4.76653,2.20958 4.76653,5.1403 0,1.51398 -0.1884,2.37014 -0.63878,2.90272 -1.64933,1.95039 -4.71493,2.81509 -7.59027,2.14096 z"
       id="use10838" />
    <path
       style="fill:#000080;stroke-width:0.365019"
       d="m 33.68977,190.96536 c -1.66355,-0.56469 -2.46394,-1.193 -3.81509,-2.99484 -1.07021,-1.42719 -1.09487,-1.55581 -1.09487,-5.71073 0,-3.536 0.1074,-4.36932 0.63879,-4.95649 0.35133,-0.38823 0.63878,-0.86174 0.63878,-1.05226 0,-0.4524 1.14626,-1.42269 2.5199,-2.13303 1.47005,-0.76019 4.65337,-0.7225 6.2146,0.0736 3.06122,1.56097 4.54724,5.69093 3.72575,10.35462 -0.84814,4.81494 -4.89177,7.75524 -8.82786,6.41913 z m 3.96372,-3.18671 c 1.543,-0.94074 2.2594,-2.67385 2.2594,-5.46593 0,-2.69954 -0.65657,-4.3833 -2.1139,-5.42101 -1.41606,-1.00833 -2.94186,-0.99568 -4.46398,0.037 -2.77683,1.88391 -2.95134,7.94694 -0.2981,10.35658 1.56538,1.42165 2.86604,1.56065 4.61658,0.49337 z"
       id="use10840" />
    <path
       style="fill:#000080;stroke-width:0.365019"
       d="m 51.5935,191.02744 c -0.70266,-0.20721 -1.74951,-0.81553 -2.32632,-1.35182 -1.88471,-1.75227 -2.17276,-2.95967 -2.34437,-9.82677 l -0.15736,-6.29659 h 1.31897 1.31897 v 5.47927 c 0,4.75765 0.0983,5.68832 0.74614,7.06662 1.04539,2.22397 2.8226,2.9403 4.92185,1.98381 1.82032,-0.82939 2.16214,-2.10742 2.29961,-8.59813 l 0.12562,-5.93157 h 1.27572 1.27572 l -0.12082,6.4791 c -0.11141,5.97407 -0.18634,6.59338 -0.96156,7.94543 -1.53244,2.67274 -4.49567,3.89894 -7.37218,3.05065 z"
       id="use10842" />
    <path
       style="fill:#000080;stroke-width:0.365019"
       d="m 65.09921,182.31272 v -8.76046 h 1.25805 c 1.1287,0 1.39951,0.21581 2.63377,2.09887 0.75664,1.15437 1.46352,2.18099 1.57084,2.28137 0.2184,0.20429 0.4223,0.53458 2.64468,4.2841 0.86112,1.45284 1.72992,2.58916 1.93068,2.52515 0.21619,-0.0689 0.40608,-2.37382 0.46579,-5.65294 l 0.10075,-5.53655 h 1.26806 1.26806 v 8.76046 8.76046 h -1.1278 c -1.03635,0 -2.47563,-1.10759 -2.51025,-1.93175 -0.007,-0.15903 -0.17865,-0.48756 -0.38222,-0.73004 -0.20357,-0.2425 -1.55868,-2.31821 -3.01141,-4.61275 -1.45273,-2.29453 -2.84665,-4.23826 -3.0976,-4.31939 -0.35223,-0.11386 -0.45629,1.1913 -0.45629,5.72321 v 5.87072 h -1.27757 -1.27756 z"
       id="use10844" />
    <path
       style="fill:#000080;stroke-width:0.365019"
       d="m 83.71518,182.26488 v -8.80831 l 3.74144,0.17083 c 4.53065,0.20683 6.34411,0.97407 7.82101,3.3088 0.77538,1.22575 1.01006,2.11681 1.13903,4.32481 0.19171,3.28259 -0.27528,4.97309 -1.87815,6.79867 -1.8197,2.07252 -4.24169,3.00572 -7.81193,3.00994 l -3.0114,0.004 z m 7.55642,5.17289 c 0.64272,-0.39187 1.42571,-1.20974 1.73996,-1.81744 1.34976,-2.61014 0.88134,-6.79224 -0.90687,-8.09679 -1.23246,-0.8991 -4.01838,-1.58461 -5.21715,-1.28374 l -0.98225,0.24653 v 5.59 c 0,3.0745 0.10949,5.69951 0.24336,5.83335 0.5428,0.54281 3.97771,0.22637 5.12296,-0.47193 z"
       id="use10846" />
    <path
       style="fill:#000080;stroke-width:0.365019"
       d="m 105.17515,191.07741 c -3.24722,-0.97885 -5.13018,-4.20894 -5.13018,-8.80053 0,-4.98561 2.28721,-8.29149 5.98218,-8.64654 2.69934,-0.25939 4.19774,0.17458 5.66332,1.64018 l 1.31814,1.31814 -1.22517,0.63355 c -1.2017,0.62144 -1.24504,0.61683 -2.26406,-0.24062 -0.70197,-0.59066 -1.49429,-0.87418 -2.44298,-0.87418 -2.04543,0 -3.33684,1.24025 -4.16292,3.99803 -0.64633,2.15768 -0.64718,2.31953 -0.0226,4.32331 0.74823,2.40041 1.84377,3.59428 3.60075,3.92389 1.31389,0.24648 2.52884,-0.21302 3.4898,-1.31987 0.65242,-0.75148 2.06421,-0.402 2.45133,0.60685 0.32175,0.83839 -1.94979,2.89936 -3.74488,3.39776 -1.62821,0.45207 -2.12702,0.45778 -3.51274,0.0398 z"
       id="use10848" />
    <path
       style="fill:#000080;stroke-width:0.365019"
       d="m 117.29694,182.31272 v -8.76046 h 1.27756 1.27757 v 7.30039 7.30038 h 4.38023 4.38022 v 1.46008 1.46007 h -5.65779 -5.65779 z"
       id="use10850" />
    <path
       style="fill:#000080;stroke-width:0.365019"
       d="m 136.16293,191.083 c -1.72155,-0.5435 -3.58415,-2.21781 -4.32145,-3.88459 -2.11696,-4.78573 -0.64225,-11.22735 3.00172,-13.11173 0.5684,-0.29391 1.99428,-0.53442 3.16863,-0.53442 2.76282,0 4.86012,1.26789 6.03283,3.64704 0.6665,1.35216 0.81084,2.26435 0.80913,5.11342 -0.002,3.01645 -0.12052,3.67932 -0.91254,5.09406 -1.61684,2.88817 -5.08399,4.52682 -7.77832,3.67622 z m 3.28706,-2.94524 c 1.72571,-0.60158 2.66824,-2.65729 2.66824,-5.81957 0,-4.13526 -1.44129,-6.21079 -4.31288,-6.21079 -2.20435,0 -4.44758,3.12978 -4.44758,6.20532 0,2.07245 1.22098,4.61025 2.63195,5.47051 1.36696,0.83343 1.92307,0.89041 3.46027,0.35453 z"
       id="use10852" />
    <path
       style="fill:#000080;stroke-width:0.365019"
       d="m 154.0877,191.09338 c -1.72649,-0.54832 -3.12028,-1.7973 -3.99697,-3.58168 -0.76697,-1.56104 -0.8634,-2.33253 -0.98068,-7.84536 l -0.13008,-6.11408 h 1.49688 1.49688 l 0.001,5.93157 c 0.001,5.2844 0.0809,6.06198 0.73021,7.12697 1.48769,2.44004 4.51014,2.47595 6.02793,0.0716 0.86711,-1.37357 0.90591,-1.68547 0.90591,-7.2826 v -5.84756 h 1.30656 1.30655 l -0.12024,6.66161 c -0.11198,6.20428 -0.17788,6.7543 -0.95993,8.01202 -1.46451,2.35527 -4.64447,3.6424 -7.08438,2.86749 z"
       id="use10854" />
    <path
       style="fill:#000080;stroke-width:0.365019"
       d="m 167.66956,182.30733 v -8.85076 l 3.78188,0.16819 c 4.52419,0.20121 6.09744,0.86268 7.71622,3.24422 0.97222,1.43033 1.10937,1.96941 1.22266,4.80592 0.1092,2.73345 0.012,3.41652 -0.67228,4.7295 -0.84818,1.62727 -1.15933,1.93915 -3.47053,3.47867 -1.27325,0.84812 -1.91547,0.99192 -5.01902,1.12379 l -3.55893,0.1512 z m 8.39492,4.56862 c 1.35176,-1.29505 1.97415,-3.42424 1.69419,-5.7957 -0.35842,-3.03605 -1.68368,-4.28791 -5.07823,-4.79695 -2.74102,-0.41102 -2.82077,-0.24106 -2.82077,6.01328 0,2.95337 0.12322,5.49484 0.27375,5.64771 0.15057,0.15288 1.29753,0.2137 2.5488,0.13522 1.90765,-0.11972 2.45383,-0.31407 3.38224,-1.20354 z"
       id="use10856" />
  </g>
  <defs
     id="defs113" />
  <title
     id="title1878">SoundCloudIcon</title>
</svg>
