<?xml version="1.0" standalone="no"?>
<!DOCTYPE svg PUBLIC "-//W3C//DTD SVG 20010904//EN"
 "http://www.w3.org/TR/2001/REC-SVG-20010904/DTD/svg10.dtd">
<svg version="1.0" xmlns="http://www.w3.org/2000/svg"
 width="260.000000pt" height="260.000000pt" viewBox="0 0 260.000000 260.000000"
 preserveAspectRatio="xMidYMid meet">
<metadata>
Created by potrace 1.14, written by Peter Selinger 2001-2017
</metadata>
<g transform="translate(0.000000,260.000000) scale(0.100000,-0.100000)"
fill="#000000" stroke="none">
<path d="M0 1950 l0 -650 74 0 c73 0 74 0 84 29 9 26 56 62 79 61 4 -1 -9 -10
-29 -21 -21 -11 -38 -24 -38 -28 0 -5 -3 -16 -6 -25 -5 -14 10 -16 134 -16
139 0 166 6 137 30 -16 13 -11 30 8 30 8 0 8 -3 -1 -9 -10 -6 -10 -10 2 -21 9
-7 13 -16 10 -21 -8 -14 120 -11 135 4 11 9 13 9 7 0 -5 -10 5 -13 41 -13 l48
0 24 70 c14 39 27 73 31 75 12 7 49 -7 54 -21 3 -8 -3 -37 -14 -65 -11 -27
-20 -52 -20 -54 0 -3 43 -5 95 -5 l94 0 17 36 c17 36 59 72 71 60 3 -3 1 -6
-5 -6 -15 0 -54 -44 -64 -71 -7 -18 -1 -19 162 -19 l170 0 0 -77 c0 -75 0 -76
-20 -58 -24 22 -26 41 -4 49 9 4 14 9 11 13 -8 8 -37 -16 -37 -31 0 -6 14 -26
30 -44 40 -45 38 -59 -7 -53 -7 1 -29 -5 -49 -14 -48 -20 -41 -27 100 -99 64
-33 114 -61 112 -64 -3 -2 -34 13 -70 33 l-66 37 0 -46 c0 -30 -4 -46 -12 -46
-7 0 -41 18 -75 40 -65 41 -122 108 -124 144 0 14 -3 16 -6 7 -16 -41 80 -143
177 -188 l39 -18 1 -97 c0 -96 0 -96 -27 -107 l-28 -11 28 5 c27 5 27 5 27
-45 0 -43 3 -52 23 -61 21 -9 21 -9 0 -5 -18 3 -22 -2 -25 -30 -3 -27 0 -34
13 -34 10 0 20 -4 23 -9 4 -5 -3 -7 -14 -4 -19 5 -20 0 -20 -66 0 -71 0 -72
-22 -60 -13 7 -59 41 -102 76 -44 36 -94 72 -110 80 -28 15 -29 17 -11 24 15
6 11 8 -17 8 -21 1 -38 -3 -38 -7 0 -5 6 -9 13 -9 12 0 93 -48 113 -67 6 -6
26 -22 44 -36 18 -14 48 -36 65 -50 18 -14 40 -29 50 -35 13 -8 16 -22 13 -64
l-3 -53 -65 48 c-98 74 -100 75 -152 128 -26 27 -50 57 -53 67 -4 11 -11 19
-16 19 -27 0 63 -104 140 -163 31 -23 62 -47 69 -54 7 -7 26 -20 42 -30 17 -9
30 -21 30 -26 0 -4 4 -6 10 -2 10 6 100 -76 100 -91 0 -17 -40 -54 -58 -53
-14 0 -14 2 -2 6 20 7 50 34 50 44 0 5 -19 27 -42 50 -34 33 -44 39 -46 26 -3
-16 -6 -15 -29 3 -14 11 -31 20 -37 20 -6 -1 2 -8 18 -17 l29 -15 -48 -23
c-66 -32 -75 -43 -51 -61 11 -8 25 -14 30 -13 6 0 1 5 -11 11 -32 16 -29 23
20 47 66 32 77 29 77 -23 0 -26 5 -46 13 -49 10 -4 10 -6 0 -6 -8 -1 -13 -15
-13 -36 l0 -35 650 0 650 0 0 650 0 650 -74 0 c-73 0 -74 0 -84 -29 -9 -27
-67 -69 -78 -58 -3 2 9 10 27 17 30 13 50 45 48 78 0 11 -3 12 -6 5 -3 -10
-41 -13 -138 -13 -132 0 -159 -6 -130 -30 16 -13 11 -30 -8 -30 -8 0 -8 3 1 9
10 6 10 10 -2 21 -9 7 -13 16 -10 21 8 14 -120 11 -135 -3 -11 -10 -13 -10 -7
0 5 9 -5 12 -41 12 l-48 0 2 48 1 47 -6 -45 c-6 -39 -10 -45 -34 -48 -19 -2
-28 2 -31 15 -4 17 -5 17 -6 1 -1 -16 -13 -18 -97 -18 -86 0 -95 2 -90 18 3 9
7 35 10 57 5 35 5 36 -3 10 -5 -16 -12 -42 -15 -57 l-6 -27 -170 0 -170 -1 0
77 c0 75 0 76 20 58 24 -22 26 -41 4 -49 -9 -4 -14 -9 -11 -13 8 -8 37 16 37
31 0 6 -13 26 -30 44 -40 45 -38 59 7 53 7 -1 29 5 49 14 48 20 41 27 -100 99
-64 33 -114 61 -112 64 3 2 34 -13 70 -33 l66 -37 0 46 c0 30 4 46 13 46 6 0
40 -18 74 -40 65 -41 122 -108 124 -144 0 -14 3 -16 6 -7 16 41 -80 143 -177
188 l-39 18 -1 97 c0 96 0 96 28 107 l27 11 -27 -5 c-28 -5 -28 -5 -28 45 0
43 -3 52 -23 61 -21 9 -21 9 0 5 18 -3 22 2 25 30 3 27 0 34 -13 34 -10 0 -20
4 -23 9 -4 5 3 7 14 4 19 -5 20 0 20 66 0 71 0 72 23 60 12 -7 58 -41 101 -76
44 -36 94 -72 110 -80 28 -15 29 -17 11 -24 -15 -6 -11 -8 18 -8 20 -1 37 3
37 7 0 5 -6 9 -13 9 -12 0 -93 48 -113 67 -6 6 -26 22 -44 36 -18 14 -48 36
-65 50 -18 14 -40 30 -50 35 -13 8 -16 22 -13 64 l3 53 65 -48 c98 -74 100
-75 152 -128 26 -27 50 -57 53 -67 4 -11 11 -19 16 -19 27 0 -63 104 -140 163
-31 23 -62 47 -69 54 -7 7 -26 20 -42 30 -17 9 -30 21 -30 26 0 4 -4 6 -10 2
-10 -6 -100 76 -100 91 0 17 40 54 58 53 14 0 14 -2 2 -6 -20 -7 -50 -34 -50
-44 0 -5 19 -27 43 -50 33 -33 43 -39 45 -26 3 16 6 15 29 -3 14 -11 31 -20
37 -20 6 1 -2 8 -18 17 l-29 15 48 23 c66 32 75 43 51 61 -11 8 -25 14 -30 13
-6 0 -1 -5 12 -11 31 -16 28 -23 -21 -47 -66 -32 -77 -29 -77 23 0 26 -5 46
-12 49 -10 4 -10 6 0 6 7 1 12 15 12 36 l0 35 -650 0 -650 0 0 -650z m1018
511 c41 -24 99 -56 130 -71 31 -16 66 -36 77 -45 24 -19 -155 74 -235 122 -65
39 -73 40 -65 11 5 -20 4 -21 -5 -5 -6 9 -8 22 -5 27 3 6 1 10 -4 10 -6 0 -11
5 -11 11 0 7 8 6 23 -3 12 -8 55 -34 95 -57z m-69 -51 c0 -10 -3 -8 -9 5 -12
27 -12 43 0 25 5 -8 9 -22 9 -30z m21 -55 c0 -5 -5 -3 -10 5 -5 8 -10 20 -10
25 0 6 5 3 10 -5 5 -8 10 -19 10 -25z m8 -40 c-3 -3 -9 2 -12 12 -6 14 -5 15
5 6 7 -7 10 -15 7 -18z m-175 -17 c12 -6 44 -31 71 -55 26 -24 59 -46 72 -49
33 -8 57 3 50 22 -3 8 -2 12 4 9 17 -11 11 -33 -11 -40 -34 -11 -68 3 -117 49
-59 54 -85 68 -116 60 -29 -7 -77 -56 -105 -107 -24 -44 -101 -143 -101 -130
0 4 20 33 45 63 25 30 45 60 45 66 0 17 80 105 104 114 29 12 34 12 59 -2z
m184 -20 c-3 -8 -6 -5 -6 6 -1 11 2 17 5 13 3 -3 4 -12 1 -19z m203 -10 c-60
-17 -80 -27 -80 -41 0 -19 37 -51 94 -81 27 -14 43 -26 36 -26 -7 0 -36 14
-64 31 -101 63 -101 100 -1 122 39 9 50 5 15 -5z m73 -5 c-7 -2 -19 -2 -25 0
-7 3 -2 5 12 5 14 0 19 -2 13 -5z m-324 -218 c12 -19 30 -51 42 -70 11 -19 18
-35 15 -35 -3 0 -17 21 -32 48 -49 85 -51 86 -89 44 -18 -21 -54 -73 -81 -117
-50 -84 -184 -227 -261 -279 -120 -81 -184 -58 -134 49 32 69 87 111 215 165
182 76 208 100 108 100 -73 0 -133 -18 -292 -85 -148 -63 -191 -73 -209 -51
-23 28 -4 83 48 137 26 27 55 49 65 49 16 0 18 -8 14 -64 -5 -77 0 -77 82 11
30 32 69 69 85 82 17 13 -13 -19 -66 -72 -53 -53 -101 -97 -107 -97 -8 0 -9
20 -5 65 7 80 -3 83 -63 20 -42 -44 -64 -100 -49 -125 11 -19 68 -3 205 55
159 67 219 85 292 85 43 0 60 -4 64 -15 5 -11 14 -4 34 27 15 24 37 52 48 62
12 11 22 25 22 33 0 25 28 13 49 -22z m146 -10 c-22 -7 -35 -14 -30 -14 6 -1
28 -18 50 -37 39 -35 39 -35 5 -13 -19 13 -44 31 -54 41 -19 17 -19 18 5 27
13 5 33 10 44 10 11 0 2 -6 -20 -14z m93 8 c-10 -2 -26 -2 -35 0 -10 3 -2 5
17 5 19 0 27 -2 18 -5z m57 -3 c13 -6 15 -9 5 -9 -8 0 -22 4 -30 9 -18 12 -2
12 25 0z m-58 -96 c-3 -3 -12 -4 -19 -1 -8 3 -5 6 6 6 11 1 17 -2 13 -5z m57
-37 c20 -28 34 -137 17 -137 -5 0 -9 17 -9 38 0 20 -1 47 -1 59 -1 12 -13 34
-28 49 -15 15 -21 25 -13 22 8 -2 23 -16 34 -31z m-274 19 c0 -2 -28 -24 -62
-49 -83 -59 -235 -216 -285 -294 -43 -67 -69 -121 -61 -129 8 -7 106 41 148
72 25 18 43 24 63 20 27 -5 27 -5 11 19 -15 24 -15 29 0 70 24 61 97 139 159
170 56 27 191 59 214 51 20 -8 16 -54 -6 -66 -11 -5 -34 -10 -51 -10 -41 0
-80 -21 -108 -59 -31 -43 -27 -85 9 -89 15 -2 34 4 43 13 9 9 21 15 27 13 6
-2 -8 -14 -31 -27 -39 -22 -42 -22 -61 -5 -26 24 -24 61 7 101 31 40 72 63
116 63 41 0 54 9 55 38 2 22 -1 23 -45 16 -168 -24 -290 -109 -322 -222 -12
-44 2 -69 54 -97 36 -19 47 -35 24 -35 -6 0 -31 12 -55 26 -52 30 -73 27 -126
-14 -39 -32 -124 -68 -135 -58 -9 9 11 59 50 124 42 70 213 250 298 313 66 50
70 52 70 45z m323 -30 c-10 -13 -20 -22 -22 -20 -4 4 29 44 36 44 2 0 -4 -11
-14 -24z m-920 -143 c-7 -2 -39 -22 -72 -43 -33 -21 -96 -60 -140 -85 -45 -26
-81 -51 -81 -56 0 -5 -7 -9 -16 -9 -27 0 -6 17 93 74 54 30 125 73 158 95 33
21 62 36 65 34 3 -3 0 -8 -7 -10z m745 -10 c-49 -5 -48 -15 2 -38 22 -10 38
-20 36 -22 -6 -6 -86 36 -86 46 0 15 14 21 49 19 l36 -1 -37 -4z m75 0 c-7 -2
-19 -2 -25 0 -7 3 -2 5 12 5 14 0 19 -2 13 -5z m102 -31 c-3 -3 -11 0 -18 7
-9 10 -8 11 6 5 10 -3 15 -9 12 -12z m-35 -127 c11 -10 20 -30 20 -44 0 -24
-44 -81 -63 -81 -5 0 5 12 22 26 21 18 31 35 31 55 0 64 -109 76 -217 23 -65
-31 -166 -122 -205 -183 -51 -82 -36 -81 85 2 200 139 258 155 224 65 -10 -24
-17 -47 -17 -52 0 -5 22 -6 49 -2 53 7 77 -7 68 -41 -4 -15 -5 -14 -6 3 -1 28
-18 34 -70 27 -50 -7 -61 11 -37 61 18 39 20 56 6 56 -17 0 -120 -60 -217
-127 -93 -64 -123 -76 -123 -48 0 41 129 183 213 234 85 52 195 64 237 26z
m107 -22 c38 -22 42 -28 28 -35 -9 -6 -32 -11 -51 -12 -33 -3 -34 -2 -34 35 0
22 3 39 6 39 3 0 26 -12 51 -27z m-1246 -11 c-7 -2 -18 1 -23 6 -8 8 -4 9 13
5 13 -4 18 -8 10 -11z m44 -2 c3 -6 -1 -7 -9 -4 -18 7 -21 14 -7 14 6 0 13 -4
16 -10z m49 -9 c4 -5 -3 -7 -14 -4 -23 6 -26 13 -6 13 8 0 17 -4 20 -9z m41
-11 c3 -6 -1 -7 -9 -4 -18 7 -21 14 -7 14 6 0 13 -4 16 -10z m40 -10 c3 -6 -1
-7 -9 -4 -18 7 -21 14 -7 14 6 0 13 -4 16 -10z m40 -10 c3 -6 -1 -7 -9 -4 -18
7 -21 14 -7 14 6 0 13 -4 16 -10z m55 -25 c0 -8 -2 -15 -4 -15 -2 0 -6 7 -10
15 -3 8 -1 15 4 15 6 0 10 -7 10 -15z m-11 -41 c-7 -8 -26 -22 -43 -30 -17 -8
-22 -9 -12 -2 11 7 26 21 35 30 20 21 38 23 20 2z m-89 -44 c-8 -5 -19 -10
-25 -10 -5 0 -3 5 5 10 8 5 20 10 25 10 6 0 3 -5 -5 -10z m816 -17 c7 -10 13
-22 13 -28 0 -5 -4 -2 -10 8 -6 10 -20 22 -32 27 -19 8 -20 9 -3 9 10 1 25 -7
32 -16z m-578 -30 c-10 -2 -28 -2 -40 0 -13 2 -5 4 17 4 22 1 32 -1 23 -4z
m65 0 c-7 -2 -21 -2 -30 0 -10 3 -4 5 12 5 17 0 24 -2 18 -5z m534 -35 c-3 -8
-6 -5 -6 6 -1 11 2 17 5 13 3 -3 4 -12 1 -19z m526 -38 c-7 -27 -57 -80 -75
-80 -7 0 -5 5 7 12 24 14 43 36 55 66 12 28 20 29 13 2z m187 -41 c-20 -51
-20 -54 -4 -66 10 -7 21 -13 24 -13 4 0 18 31 31 70 13 38 25 67 28 65 4 -5
-37 -126 -48 -137 -10 -11 -49 2 -55 18 -5 14 33 128 41 121 2 -3 -6 -28 -17
-58z m-343 29 c-3 -8 -6 -5 -6 6 -1 11 2 17 5 13 3 -3 4 -12 1 -19z m313 7 c0
-50 -152 -205 -246 -251 -109 -53 -224 -35 -224 36 0 24 44 80 64 80 4 0 -6
-12 -23 -26 -21 -18 -31 -35 -31 -55 0 -64 109 -76 217 -23 65 31 166 122 205
183 51 82 36 81 -85 -2 -200 -139 -258 -155 -224 -65 10 24 17 47 17 52 0 5
-22 6 -49 2 -53 -7 -77 7 -68 41 4 15 5 14 6 -3 1 -28 18 -34 70 -27 50 7 61
-11 37 -61 -18 -39 -20 -56 -6 -56 17 0 136 69 221 130 85 60 119 73 119 45z
m-267 -65 c19 -8 20 -9 3 -9 -19 -1 -45 25 -45 44 0 6 4 2 10 -8 6 -10 20 -22
32 -27z m520 33 c-7 -2 -21 -2 -30 0 -10 3 -4 5 12 5 17 0 24 -2 18 -5z m75 0
c-10 -2 -28 -2 -40 0 -13 2 -5 4 17 4 22 1 32 -1 23 -4z m212 -43 c-8 -5 -19
-10 -25 -10 -5 0 -3 5 5 10 8 5 20 10 25 10 6 0 3 -5 -5 -10z m-54 -13 c-11
-7 -28 -20 -38 -29 -20 -20 -33 -24 -22 -7 6 11 65 49 74 48 3 0 -4 -6 -14
-12z m-226 -42 c0 -23 -37 -92 -85 -160 -51 -71 -220 -238 -287 -284 -70 -47
-59 -30 15 22 82 59 234 216 284 294 43 67 69 121 61 129 -8 7 -106 -41 -148
-72 -25 -18 -43 -24 -63 -20 -27 5 -27 5 -11 -19 15 -24 15 -29 0 -70 -24 -61
-97 -139 -159 -170 -56 -27 -191 -59 -214 -51 -20 8 -16 54 6 66 11 5 34 10
51 10 64 0 134 64 128 118 -4 37 -47 43 -78 10 -13 -13 -21 -17 -18 -8 3 8 19
23 37 34 30 18 33 18 51 1 27 -25 25 -62 -6 -102 -31 -40 -72 -63 -116 -63
-41 0 -54 -9 -55 -38 -2 -22 1 -23 45 -16 168 24 290 109 321 221 13 46 6 60
-46 93 -58 37 -37 50 23 15 52 -30 77 -28 122 10 30 25 106 63 130 64 6 1 12
-6 12 -14z m174 -30 c3 -8 1 -15 -4 -15 -6 0 -10 7 -10 15 0 8 2 15 4 15 2 0
6 -7 10 -15z m61 -33 c-3 -3 -11 0 -18 7 -9 10 -8 11 6 5 10 -3 15 -9 12 -12z
m-995 -34 c0 -21 -3 -38 -6 -38 -3 0 -26 12 -52 27 l-46 27 29 12 c16 6 39 11
52 10 20 -1 23 -6 23 -38z m1035 24 c-3 -3 -11 0 -18 7 -9 10 -8 11 6 5 10 -3
15 -9 12 -12z m40 -10 c-3 -3 -11 0 -18 7 -9 10 -8 11 6 5 10 -3 15 -9 12 -12z
m46 -10 c-7 -2 -18 1 -23 6 -8 8 -4 9 13 5 13 -4 18 -8 10 -11z m44 -10 c-3
-3 -11 0 -18 7 -9 10 -8 11 6 5 10 -3 15 -9 12 -12z m49 -1 c4 -5 -3 -7 -14
-4 -23 6 -26 13 -6 13 8 0 17 -4 20 -9z m40 -11 c-6 -6 -55 -37 -110 -69 -54
-31 -125 -74 -156 -94 -32 -21 -58 -34 -58 -30 0 4 17 18 38 29 110 63 257
155 260 164 2 6 11 10 20 10 11 0 13 -3 6 -10z m-334 -53 c-1 -37 -35 -100
-77 -140 -27 -26 -76 -53 -157 -87 -182 -76 -208 -100 -108 -100 73 0 133 18
292 85 148 63 191 73 209 51 23 -28 4 -83 -48 -137 -26 -27 -55 -49 -65 -49
-16 0 -18 8 -14 64 3 56 2 63 -12 56 -31 -17 -258 -261 -275 -297 -24 -49 -90
-120 -121 -127 -30 -8 -55 5 -118 61 -26 24 -59 46 -72 49 -33 8 -57 -3 -50
-22 3 -8 2 -12 -4 -9 -17 11 -11 33 11 40 34 11 68 -3 117 -49 59 -55 85 -68
117 -60 30 7 87 69 111 120 20 42 281 314 301 314 9 0 11 -17 6 -65 -7 -80 3
-83 63 -20 42 44 64 100 49 125 -11 19 -68 3 -205 -55 -159 -67 -219 -85 -292
-85 -43 0 -60 4 -64 15 -5 11 -14 4 -34 -27 -15 -24 -37 -52 -48 -62 -12 -11
-22 -25 -22 -33 0 -25 -28 -13 -48 20 -10 17 -29 49 -41 70 -13 20 -20 37 -17
37 3 0 17 -21 32 -47 49 -86 51 -87 89 -45 18 21 54 73 81 117 50 84 184 227
261 279 86 58 153 64 153 13z m-719 -78 c49 -24 46 -44 -7 -45 l-39 -1 38 4
c20 2 37 8 37 12 0 4 -19 17 -42 28 -24 12 -39 22 -35 22 4 1 26 -8 48 -20z
m-166 -19 c3 -6 -1 -7 -9 -4 -18 7 -21 14 -7 14 6 0 13 -4 16 -10z m108 -27
c-7 -2 -19 -2 -25 0 -7 3 -2 5 12 5 14 0 19 -2 13 -5z m-85 -60 c0 -21 1 -48
1 -60 1 -12 13 -34 28 -49 15 -15 21 -25 13 -22 -30 10 -54 58 -57 113 -1 30
2 55 6 55 5 0 9 -17 9 -37z m-37 -96 l-24 -22 19 27 c10 14 21 24 23 22 3 -3
-6 -15 -18 -27z m126 -43 c-3 -3 -12 -4 -19 -1 -8 3 -5 6 6 6 11 1 17 -2 13
-5z m97 -66 c19 -17 18 -18 -8 -28 -15 -5 -35 -10 -44 -9 -9 0 1 6 23 14 22 7
36 14 30 14 -5 1 -28 18 -50 37 -39 35 -39 35 -5 13 19 -13 44 -31 54 -41z
m-154 -28 c18 -12 2 -12 -25 0 -13 6 -15 9 -5 9 8 0 22 -4 30 -9z m68 -7 c-10
-2 -26 -2 -35 0 -10 3 -2 5 17 5 19 0 27 -2 18 -5z m-34 -104 c106 -66 101
-106 -14 -123 l-35 -5 35 10 c62 19 80 28 80 42 0 19 -37 51 -94 81 -27 14
-43 26 -36 26 7 0 36 -14 64 -31z m-61 -116 c-7 -2 -19 -2 -25 0 -7 3 -2 5 12
5 14 0 19 -2 13 -5z m254 -25 c-3 -8 -6 -5 -6 6 -1 11 2 17 5 13 3 -3 4 -12 1
-19z m17 -34 c3 -8 2 -12 -4 -9 -6 3 -10 10 -10 16 0 14 7 11 14 -7z m-24
-141 c65 -39 73 -40 65 -10 -5 19 -4 20 5 4 6 -9 9 -21 5 -26 -3 -5 1 -11 7
-14 7 -2 11 -7 8 -10 -3 -3 -43 18 -90 45 -47 28 -114 66 -150 84 -36 18 -74
40 -85 49 -24 19 156 -74 235 -122z m40 82 c0 -5 -5 -3 -10 5 -5 8 -10 20 -10
25 0 6 5 3 10 -5 5 -8 10 -19 10 -25z m19 -60 c0 -5 -4 -3 -9 5 -5 8 -9 22 -9
30 0 16 17 -16 18 -35z"/>
<path d="M755 1906 c-16 -13 -79 -43 -139 -66 -71 -28 -123 -55 -149 -79 -60
-54 -98 -151 -64 -164 59 -23 294 165 365 292 13 22 22 41 20 41 -2 -1 -16
-12 -33 -24z"/>
<path d="M790 1536 c0 -3 9 -10 20 -16 11 -6 20 -8 20 -6 0 3 -9 10 -20 16
-11 6 -20 8 -20 6z"/>
<path d="M1770 1086 c0 -3 9 -10 20 -16 11 -6 20 -8 20 -6 0 3 -9 10 -20 16
-11 6 -20 8 -20 6z"/>
<path d="M2148 995 c-88 -30 -262 -187 -317 -285 l-24 -43 34 25 c19 14 83 45
143 68 121 47 178 90 207 155 35 77 21 103 -43 80z"/>
<path d="M1308 2523 c7 -3 16 -2 19 1 4 3 -2 6 -13 5 -11 0 -14 -3 -6 -6z"/>
<path d="M1348 2513 c7 -3 16 -2 19 1 4 3 -2 6 -13 5 -11 0 -14 -3 -6 -6z"/>
<path d="M1400 2376 c0 -2 9 -6 20 -9 11 -3 18 -1 14 4 -5 9 -34 13 -34 5z"/>
<path d="M1458 2363 c7 -3 16 -2 19 1 4 3 -2 6 -13 5 -11 0 -14 -3 -6 -6z"/>
<path d="M1524 2346 c11 -9 24 -16 30 -16 12 0 7 5 -24 19 -24 11 -24 11 -6
-3z"/>
<path d="M1598 2323 c6 -2 18 -2 25 0 6 3 1 5 -13 5 -14 0 -19 -2 -12 -5z"/>
<path d="M1648 2313 c6 -2 18 -2 25 0 6 3 1 5 -13 5 -14 0 -19 -2 -12 -5z"/>
<path d="M1697 2308 c2 -5 13 -8 23 -8 10 0 21 3 23 8 3 4 -8 7 -23 7 -15 0
-26 -3 -23 -7z"/>
<path d="M1770 2310 c8 -5 20 -10 25 -10 6 0 3 5 -5 10 -8 5 -19 10 -25 10 -5
0 -3 -5 5 -10z"/>
<path d="M1810 2306 c0 -2 7 -7 16 -10 8 -3 12 -2 9 4 -6 10 -25 14 -25 6z"/>
<path d="M1865 2286 c40 -31 45 -37 46 -64 0 -15 3 -21 6 -14 10 26 -8 62 -40
77 -27 14 -29 14 -12 1z"/>
<path d="M2105 2194 c-27 -36 -77 -91 -110 -124 -56 -55 -62 -59 -80 -46 -13
9 -19 26 -19 50 0 21 -4 32 -9 27 -14 -14 2 -69 26 -86 20 -14 25 -12 85 47
34 35 82 86 104 115 23 29 44 51 45 49 2 -2 6 -82 9 -177 3 -96 8 -176 10
-178 6 -6 1 368 -6 378 -3 5 -27 -20 -55 -55z"/>
<path d="M1905 2179 c-4 -6 -5 -12 -2 -15 2 -3 7 2 10 11 7 17 1 20 -8 4z"/>
<path d="M1895 2139 c-4 -6 -5 -12 -2 -15 2 -3 7 2 10 11 7 17 1 20 -8 4z"/>
<path d="M1327 2089 c7 -7 15 -10 18 -7 3 3 -2 9 -12 12 -14 6 -15 5 -6 -5z"/>
<path d="M1397 2069 c7 -7 15 -10 18 -7 3 3 -2 9 -12 12 -14 6 -15 5 -6 -5z"/>
<path d="M1440 2060 c8 -5 20 -10 25 -10 6 0 3 5 -5 10 -8 5 -19 10 -25 10 -5
0 -3 -5 5 -10z"/>
<path d="M1488 2053 c6 -2 18 -2 25 0 6 3 1 5 -13 5 -14 0 -19 -2 -12 -5z"/>
<path d="M1625 2050 c27 -12 43 -12 25 0 -8 5 -22 9 -30 9 -10 0 -8 -3 5 -9z"/>
<path d="M1678 2043 c7 -3 16 -2 19 1 4 3 -2 6 -13 5 -11 0 -14 -3 -6 -6z"/>
<path d="M1719 2038 c11 -15 41 -15 41 -1 0 3 -6 3 -14 0 -7 -3 -20 0 -27 6
-11 10 -11 9 0 -5z"/>
<path d="M1771 2024 c0 -11 3 -14 6 -6 3 7 2 16 -1 19 -3 4 -6 -2 -5 -13z"/>
<path d="M1318 2023 c7 -3 16 -2 19 1 4 3 -2 6 -13 5 -11 0 -14 -3 -6 -6z"/>
<path d="M1358 2013 c7 -3 16 -2 19 1 4 3 -2 6 -13 5 -11 0 -14 -3 -6 -6z"/>
<path d="M1450 1996 c0 -2 7 -7 16 -10 8 -3 12 -2 9 4 -6 10 -25 14 -25 6z"/>
<path d="M1743 1964 c-12 -19 -19 -34 -15 -34 9 0 46 60 40 64 -1 2 -13 -12
-25 -30z"/>
<path d="M1497 1979 c7 -7 15 -10 18 -7 3 3 -2 9 -12 12 -14 6 -15 5 -6 -5z"/>
<path d="M2267 1965 c-9 -8 -18 -29 -22 -47 -4 -18 -9 -42 -12 -53 -3 -11 -2
-17 2 -13 4 3 11 26 16 49 17 75 41 87 85 42 15 -16 21 -19 14 -8 -32 46 -58
55 -83 30z"/>
<path d="M1545 1960 c27 -12 43 -12 25 0 -8 5 -22 9 -30 9 -10 0 -8 -3 5 -9z"/>
<path d="M1591 1947 c16 -12 79 -45 79 -42 0 7 -63 45 -74 45 -5 0 -7 -1 -5
-3z"/>
<path d="M1982 1899 c-12 -48 -4 -44 14 6 6 19 8 35 4 35 -4 0 -12 -18 -18
-41z"/>
<path d="M2062 1900 c21 -23 38 -47 38 -55 0 -8 4 -16 9 -19 5 -4 7 3 4 13 -6
22 -70 101 -82 101 -4 0 9 -18 31 -40z"/>
<path d="M1368 1923 c6 -2 18 -2 25 0 6 3 1 5 -13 5 -14 0 -19 -2 -12 -5z"/>
<path d="M1418 1913 c6 -2 18 -2 25 0 6 3 1 5 -13 5 -14 0 -19 -2 -12 -5z"/>
<path d="M1710 1900 c-6 -11 -8 -20 -6 -20 3 0 10 9 16 20 6 11 8 20 6 20 -3
0 -10 -9 -16 -20z"/>
<path d="M1470 1900 c8 -5 20 -10 25 -10 6 0 3 5 -5 10 -8 5 -19 10 -25 10 -5
0 -3 -5 5 -10z"/>
<path d="M2361 1905 c1 -19 18 -51 18 -35 0 8 -4 22 -9 30 -5 8 -9 11 -9 5z"/>
<path d="M1535 1874 c31 -17 155 -142 155 -157 0 -5 -7 -15 -15 -23 -13 -14
-18 -12 -40 12 -14 15 -25 30 -25 35 0 15 -65 47 -107 54 -37 5 -46 3 -68 -19
-31 -31 -31 -38 -3 -62 l21 -19 -17 27 c-17 26 -17 27 3 47 38 38 141 8 175
-50 25 -42 47 -51 73 -29 21 16 21 19 5 41 -47 70 -150 160 -179 159 -4 -1 6
-8 22 -16z"/>
<path d="M1796 1883 c-3 -4 -5 -18 -5 -32 1 -26 1 -26 8 3 6 27 7 28 23 10 9
-11 35 -53 58 -94 23 -41 39 -66 35 -55 -3 11 -24 52 -47 92 -39 68 -59 89
-72 76z"/>
<path d="M2264 1846 c-4 -9 -4 -20 0 -23 3 -4 6 2 6 11 0 14 9 10 42 -18 23
-20 46 -36 52 -35 6 0 2 6 -8 12 -11 7 -34 25 -52 40 -29 25 -35 27 -40 13z"/>
<path d="M1970 1826 c0 -14 4 -27 8 -30 5 -3 6 8 4 25 -5 35 -12 38 -12 5z"/>
<path d="M2381 1834 c0 -11 3 -14 6 -6 3 7 2 16 -1 19 -3 4 -6 -2 -5 -13z"/>
<path d="M2226 1789 c-4 -28 -5 -53 -3 -56 3 -2 8 19 12 47 4 28 5 53 2 56 -2
3 -7 -19 -11 -47z"/>
<path d="M1784 1806 c-3 -8 -4 -25 -2 -38 3 -17 5 -13 9 15 5 38 2 47 -7 23z"/>
<path d="M2266 1797 c3 -10 9 -15 12 -12 3 3 0 11 -7 18 -10 9 -11 8 -5 -6z"/>
<path d="M2383 1789 c-2 -23 3 -25 10 -4 4 8 3 16 -1 19 -4 3 -9 -4 -9 -15z"/>
<path d="M2122 1765 c0 -16 2 -22 5 -12 2 9 2 23 0 30 -3 6 -5 -1 -5 -18z"/>
<path d="M1982 1760 c0 -14 2 -19 5 -12 2 6 2 18 0 25 -3 6 -5 1 -5 -13z"/>
<path d="M1792 1720 c0 -14 2 -19 5 -12 2 6 2 18 0 25 -3 6 -5 1 -5 -13z"/>
<path d="M2287 1719 c4 -13 8 -18 11 -10 2 7 -1 18 -6 23 -8 8 -9 4 -5 -13z"/>
<path d="M1544 1705 c-4 -14 -4 -29 0 -32 3 -4 6 3 6 15 0 32 27 27 45 -8 9
-16 18 -30 21 -30 11 0 -28 60 -46 70 -17 9 -20 7 -26 -15z"/>
<path d="M1980 1725 c0 -5 5 -17 10 -25 5 -8 10 -10 10 -5 0 6 -5 17 -10 25
-5 8 -10 11 -10 5z"/>
<path d="M2116 1674 c-4 -31 -5 -59 -2 -61 2 -3 8 21 11 52 4 31 5 58 3 61 -3
2 -8 -21 -12 -52z"/>
<path d="M2220 1714 c0 -5 -9 -51 -20 -103 -23 -106 -60 -181 -90 -181 -11 0
-20 5 -20 11 0 5 4 7 10 4 6 -3 7 1 3 10 -4 12 -8 13 -13 5 -6 -9 -10 -6 -14
8 -4 11 -13 26 -21 32 -8 7 8 -29 36 -79 28 -50 53 -91 56 -91 2 0 -6 19 -20
43 l-24 44 21 9 c11 5 31 28 43 50 23 42 69 232 58 242 -3 3 -5 1 -5 -4z"/>
<path d="M1460 1696 c0 -2 9 -6 20 -9 11 -3 18 -1 14 4 -5 9 -34 13 -34 5z"/>
<path d="M1788 1672 c-3 -12 -20 -30 -38 -39 -44 -25 -72 -50 -63 -56 11 -7
90 36 83 45 -3 3 3 15 14 26 10 12 16 27 14 34 -3 7 -7 3 -10 -10z m-18 -47
c0 -2 -13 -11 -30 -20 -38 -19 -40 -11 -2 9 31 17 32 18 32 11z"/>
<path d="M1920 1684 c0 -6 7 -19 16 -30 14 -18 14 -18 3 6 -14 31 -19 36 -19
24z"/>
<path d="M2301 1685 c1 -19 18 -51 18 -35 0 8 -4 22 -9 30 -5 8 -9 11 -9 5z"/>
<path d="M1996 1667 c3 -10 9 -15 12 -12 3 3 0 11 -7 18 -10 9 -11 8 -5 -6z"/>
<path d="M1547 1639 c4 -13 8 -18 11 -10 2 7 -1 18 -6 23 -8 8 -9 4 -5 -13z"/>
<path d="M1621 1620 c14 -31 19 -36 19 -24 0 6 -7 19 -16 30 -14 18 -14 18 -3
-6z"/>
<path d="M1816 1608 c17 -12 43 -44 58 -70 15 -26 30 -48 33 -48 2 0 -7 21
-22 48 -29 49 -70 92 -89 92 -6 0 3 -10 20 -22z"/>
<path d="M1940 1621 c0 -6 4 -13 10 -16 6 -3 7 1 4 9 -7 18 -14 21 -14 7z"/>
<path d="M2317 1609 c4 -13 8 -18 11 -10 2 7 -1 18 -6 23 -8 8 -9 4 -5 -13z"/>
<path d="M1552 1590 c0 -14 2 -19 5 -12 2 6 2 18 0 25 -3 6 -5 1 -5 -13z"/>
<path d="M2010 1601 c0 -6 4 -13 10 -16 6 -3 7 1 4 9 -7 18 -14 21 -14 7z"/>
<path d="M2107 1593 c-7 -12 -20 -119 -14 -113 6 6 26 120 21 120 -2 0 -5 -3
-7 -7z"/>
<path d="M1956 1577 c3 -10 9 -15 12 -12 3 3 0 11 -7 18 -10 9 -11 8 -5 -6z"/>
<path d="M2326 1567 c3 -10 9 -15 12 -12 3 3 0 11 -7 18 -10 9 -11 8 -5 -6z"/>
<path d="M2031 1550 c14 -31 19 -36 19 -24 0 6 -7 19 -16 30 -14 18 -14 18 -3
-6z"/>
<path d="M1558 1533 c5 -21 7 -23 10 -9 2 10 0 22 -6 28 -6 6 -7 0 -4 -19z"/>
<path d="M2340 1535 c0 -5 5 -17 10 -25 5 -8 10 -10 10 -5 0 6 -5 17 -10 25
-5 8 -10 11 -10 5z"/>
<path d="M1970 1521 c0 -6 4 -13 10 -16 6 -3 7 1 4 9 -7 18 -14 21 -14 7z"/>
<path d="M1651 1504 c0 -11 3 -14 6 -6 3 7 2 16 -1 19 -3 4 -6 -2 -5 -13z"/>
<path d="M1563 1460 c0 -25 2 -35 4 -22 2 12 2 32 0 45 -2 12 -4 2 -4 -23z"/>
<path d="M1511 1477 c-1 -19 -37 -37 -61 -30 -12 4 -12 3 -1 -5 26 -19 79 12
68 40 -3 8 -6 6 -6 -5z"/>
<path d="M1981 1474 c0 -11 3 -14 6 -6 3 7 2 16 -1 19 -3 4 -6 -2 -5 -13z"/>
<path d="M2360 1485 c1 -5 16 -37 35 -70 19 -33 35 -55 35 -50 -1 6 -16 37
-35 70 -19 33 -35 56 -35 50z"/>
<path d="M1659 1448 c4 -28 6 -29 9 -9 2 13 0 27 -5 32 -6 6 -7 -3 -4 -23z"/>
<path d="M1390 1466 c0 -3 9 -10 20 -16 11 -6 20 -8 20 -6 0 3 -9 10 -20 16
-11 6 -20 8 -20 6z"/>
<path d="M1912 1425 c0 -16 2 -22 5 -12 2 9 2 23 0 30 -3 6 -5 -1 -5 -18z"/>
<path d="M1991 1434 c0 -11 3 -14 6 -6 3 7 2 16 -1 19 -3 4 -6 -2 -5 -13z"/>
<path d="M722 1378 c-27 -78 -27 -78 2 -78 19 0 27 10 45 57 21 54 21 58 5 70
-10 7 -21 13 -24 13 -3 0 -16 -28 -28 -62z"/>
<path d="M1736 1417 c-11 -8 -16 -21 -13 -33 4 -18 5 -17 6 2 0 12 11 26 24
32 12 6 17 11 11 11 -5 1 -18 -5 -28 -12z"/>
<path d="M1792 1415 c9 -11 22 -33 28 -49 6 -16 13 -26 16 -23 8 8 -22 61 -43
78 -17 13 -17 13 -1 -6z"/>
<path d="M1446 1388 c-8 -13 -17 -34 -21 -47 -6 -20 -12 -22 -39 -17 -22 4
-27 3 -16 -4 31 -20 49 -10 73 40 25 53 27 65 3 28z"/>
<path d="M1480 1407 c0 -38 72 -100 86 -74 4 7 4 9 -1 5 -12 -12 -44 11 -65
45 -11 18 -20 28 -20 24z"/>
<path d="M1562 1380 c0 -19 2 -27 5 -17 2 9 2 25 0 35 -3 9 -5 1 -5 -18z"/>
<path d="M2002 1390 c0 -14 2 -19 5 -12 2 6 2 18 0 25 -3 6 -5 1 -5 -13z"/>
<path d="M1727 1339 c4 -13 8 -18 11 -10 2 7 -1 18 -6 23 -8 8 -9 4 -5 -13z"/>
<path d="M2002 1335 c0 -16 2 -22 5 -12 2 9 2 23 0 30 -3 6 -5 -1 -5 -18z"/>
<path d="M592 1265 c0 -16 2 -22 5 -12 2 9 2 23 0 30 -3 6 -5 -1 -5 -18z"/>
<path d="M683 1250 c0 -25 2 -35 4 -22 2 12 2 32 0 45 -2 12 -4 2 -4 -23z"/>
<path d="M947 1283 c-3 -5 -7 -28 -11 -53 -7 -52 -1 -44 13 18 8 40 8 51 -2
35z"/>
<path d="M1157 1240 c-13 -28 -18 -45 -11 -39 7 6 18 26 25 46 10 32 14 35 43
29 22 -4 27 -3 16 4 -31 20 -49 10 -73 -40z"/>
<path d="M860 1266 c0 -8 4 -17 9 -20 5 -4 7 3 4 14 -6 23 -13 26 -13 6z"/>
<path d="M1034 1267 c-4 -7 -4 -9 1 -5 12 12 44 -11 65 -45 11 -18 20 -28 20
-24 0 38 -72 100 -86 74z"/>
<path d="M473 1227 c24 -44 24 -44 3 -53 -30 -13 -63 -78 -80 -159 -24 -115
-29 -140 -23 -135 3 3 15 50 26 104 23 110 60 186 91 186 11 0 20 -5 20 -11 0
-5 -4 -7 -10 -4 -6 3 -7 -1 -3 -10 4 -12 8 -13 13 -5 6 9 10 6 14 -8 4 -11 13
-26 21 -32 8 -7 -8 29 -36 79 -28 50 -53 91 -56 91 -2 0 6 -19 20 -43z"/>
<path d="M760 1255 c0 -14 30 -62 47 -76 12 -10 11 -5 -5 15 -12 16 -22 35
-22 42 0 7 -4 16 -10 19 -5 3 -10 3 -10 0z"/>
<path d="M1032 1220 c0 -19 2 -27 5 -17 2 9 2 25 0 35 -3 9 -5 1 -5 -18z"/>
<path d="M170 1235 c1 -5 16 -37 35 -70 19 -33 35 -55 35 -50 -1 6 -16 37 -35
70 -19 33 -35 56 -35 50z"/>
<path d="M592 1210 c0 -14 2 -19 5 -12 2 6 2 18 0 25 -3 6 -5 1 -5 -13z"/>
<path d="M871 1214 c0 -12 -11 -26 -23 -32 -13 -6 -18 -11 -12 -11 21 -2 46
25 41 45 -4 18 -5 17 -6 -2z"/>
<path d="M682 1175 c0 -16 2 -22 5 -12 2 9 2 23 0 30 -3 6 -5 -1 -5 -18z"/>
<path d="M601 1164 c0 -11 3 -14 6 -6 3 7 2 16 -1 19 -3 4 -6 -2 -5 -13z"/>
<path d="M930 1156 c0 -14 4 -27 8 -30 5 -3 6 8 4 25 -5 35 -12 38 -12 5z"/>
<path d="M1033 1140 c0 -25 2 -35 4 -22 2 12 2 32 0 45 -2 12 -4 2 -4 -23z"/>
<path d="M1109 1156 c-13 -6 -25 -20 -26 -31 -3 -17 -1 -16 7 3 9 20 25 27 58
23 16 -2 15 6 -2 12 -7 3 -24 0 -37 -7z"/>
<path d="M1170 1156 c0 -3 9 -10 20 -16 11 -6 20 -8 20 -6 0 3 -9 10 -20 16
-11 6 -20 8 -20 6z"/>
<path d="M611 1124 c0 -11 3 -14 6 -6 3 7 2 16 -1 19 -3 4 -6 -2 -5 -13z"/>
<path d="M499 1108 c0 -7 -4 -35 -8 -61 -4 -26 -5 -44 -1 -40 10 10 24 113 16
113 -3 0 -6 -6 -7 -12z"/>
<path d="M715 1063 c29 -50 70 -93 89 -93 6 0 -3 10 -20 22 -17 12 -43 44 -58
70 -15 26 -30 48 -33 48 -2 0 7 -21 22 -47z"/>
<path d="M941 1094 c0 -11 3 -14 6 -6 3 7 2 16 -1 19 -3 4 -6 -2 -5 -13z"/>
<path d="M240 1095 c0 -5 5 -17 10 -25 5 -8 10 -10 10 -5 0 6 -5 17 -10 25 -5
8 -10 11 -10 5z"/>
<path d="M616 1087 c3 -10 9 -15 12 -12 3 3 0 11 -7 18 -10 9 -11 8 -5 -6z"/>
<path d="M1030 1071 c0 -11 4 -22 9 -25 4 -3 6 6 3 19 -5 30 -12 33 -12 6z"/>
<path d="M550 1074 c0 -6 7 -19 16 -30 14 -18 14 -18 3 6 -14 31 -19 36 -19
24z"/>
<path d="M260 1041 c0 -6 4 -13 10 -16 6 -3 7 1 4 9 -7 18 -14 21 -14 7z"/>
<path d="M630 1031 c0 -6 4 -13 10 -16 6 -3 7 1 4 9 -7 18 -14 21 -14 7z"/>
<path d="M865 1007 c-22 -13 -40 -28 -40 -34 0 -7 -6 -18 -12 -24 -7 -7 -13
-20 -12 -28 0 -10 4 -7 9 7 5 12 24 30 41 40 43 24 71 49 62 55 -5 3 -27 -4
-48 -16z m25 -2 c0 -2 -13 -11 -30 -20 -38 -19 -40 -11 -2 9 31 17 32 18 32
11z"/>
<path d="M1042 1010 c0 -14 2 -19 5 -12 2 6 2 18 0 25 -3 6 -5 1 -5 -13z"/>
<path d="M576 1007 c3 -10 9 -15 12 -12 3 3 0 11 -7 18 -10 9 -11 8 -5 -6z"/>
<path d="M270 996 c0 -8 4 -17 9 -20 5 -4 7 3 4 14 -6 23 -13 26 -13 6z"/>
<path d="M960 1004 c0 -6 7 -19 16 -30 14 -18 14 -18 3 6 -14 31 -19 36 -19
24z"/>
<path d="M646 987 c3 -10 9 -15 12 -12 3 3 0 11 -7 18 -10 9 -11 8 -5 -6z"/>
<path d="M475 935 c-4 -31 -5 -58 -3 -61 3 -2 8 21 12 52 4 31 5 59 2 61 -2 3
-8 -21 -11 -52z"/>
<path d="M1040 966 c0 -8 4 -17 9 -20 5 -4 7 3 4 14 -6 23 -13 26 -13 6z"/>
<path d="M281 950 c0 -8 4 -22 9 -30 12 -18 12 -2 0 25 -6 13 -9 15 -9 5z"/>
<path d="M661 940 c14 -31 19 -36 19 -24 0 6 -7 19 -16 30 -14 18 -14 18 -3
-6z"/>
<path d="M590 941 c0 -6 4 -13 10 -16 6 -3 7 1 4 9 -7 18 -14 21 -14 7z"/>
<path d="M995 920 c8 -16 24 -34 35 -40 17 -9 20 -7 26 15 4 14 4 29 0 32 -3
4 -6 -3 -6 -15 0 -32 -27 -27 -45 8 -9 17 -18 30 -21 30 -2 0 2 -13 11 -30z"/>
<path d="M913 910 c-21 -16 -21 -19 -5 -41 49 -72 163 -171 179 -156 2 3 -6 8
-19 12 -24 8 -158 141 -158 157 0 5 7 16 15 24 13 14 18 12 40 -12 14 -15 25
-30 25 -35 0 -15 65 -47 107 -54 37 -5 46 -3 68 19 31 31 31 38 3 62 l-21 19
17 -27 c17 -26 17 -27 -3 -47 -38 -38 -141 -8 -175 50 -25 42 -47 51 -73 29z"/>
<path d="M1108 908 c5 -5 16 -8 23 -6 8 3 3 7 -10 11 -17 4 -21 3 -13 -5z"/>
<path d="M600 905 c0 -5 5 -17 10 -25 5 -8 10 -10 10 -5 0 6 -5 17 -10 25 -5
8 -10 11 -10 5z"/>
<path d="M300 886 c0 -8 4 -17 9 -20 5 -4 7 3 4 14 -6 23 -13 26 -13 6z"/>
<path d="M680 895 c0 -15 88 -168 102 -176 18 -12 28 -1 27 29 l-1 27 -7 -29
c-6 -27 -7 -28 -23 -10 -9 11 -35 53 -57 94 -22 41 -41 70 -41 65z"/>
<path d="M802 880 c0 -14 2 -19 5 -12 2 6 2 18 0 25 -3 6 -5 1 -5 -13z"/>
<path d="M365 820 c-4 -28 -5 -53 -2 -56 2 -3 7 19 11 47 4 28 5 53 3 56 -3 2
-8 -19 -12 -47z"/>
<path d="M472 835 c0 -16 2 -22 5 -12 2 9 2 23 0 30 -3 6 -5 -1 -5 -18z"/>
<path d="M612 840 c0 -14 2 -19 5 -12 2 6 2 18 0 25 -3 6 -5 1 -5 -13z"/>
<path d="M809 818 c-3 -22 -1 -34 4 -29 5 5 7 21 5 37 -3 27 -4 26 -9 -8z"/>
<path d="M207 815 c-4 -8 -3 -16 1 -19 4 -3 9 4 9 15 2 23 -3 25 -10 4z"/>
<path d="M244 807 c11 -7 34 -25 52 -40 29 -25 35 -27 40 -13 4 9 4 20 0 23
-3 4 -6 -2 -6 -11 0 -14 -9 -10 -42 18 -23 20 -46 36 -52 35 -6 0 -2 -6 8 -12z"/>
<path d="M320 811 c0 -6 4 -13 10 -16 6 -3 7 1 4 9 -7 18 -14 21 -14 7z"/>
<path d="M619 778 c4 -28 6 -29 9 -9 2 13 0 27 -5 32 -6 6 -7 -3 -4 -23z"/>
<path d="M211 764 c0 -11 3 -14 6 -6 3 7 2 16 -1 19 -3 4 -6 -2 -5 -13z"/>
<path d="M487 761 c6 -22 70 -101 82 -101 4 0 -9 18 -31 40 -21 23 -38 47 -38
55 0 8 -4 16 -9 19 -5 4 -7 -3 -4 -13z"/>
<path d="M357 733 c-3 -10 -8 -31 -12 -48 -14 -61 -40 -70 -81 -27 l-26 27 17
-27 c18 -30 44 -42 68 -32 15 5 28 35 41 97 7 29 0 38 -7 10z"/>
<path d="M221 730 c0 -8 4 -22 9 -30 12 -18 12 -2 0 25 -6 13 -9 15 -9 5z"/>
<path d="M614 723 c-3 -10 -10 -28 -15 -40 -5 -13 -5 -23 0 -23 5 0 13 18 19
40 10 39 7 57 -4 23z"/>
<path d="M432 554 c1 -98 4 -187 6 -196 3 -13 21 4 67 60 35 42 85 98 112 125
44 43 51 46 68 33 13 -9 19 -26 19 -50 0 -21 4 -32 9 -27 13 13 -1 66 -24 87
-19 17 -21 16 -85 -47 -36 -35 -84 -87 -106 -116 -23 -29 -44 -51 -45 -49 -2
2 -6 82 -9 177 -3 96 -8 176 -10 178 -2 3 -3 -76 -2 -175z"/>
<path d="M880 700 c-6 -11 -8 -20 -6 -20 3 0 10 9 16 20 6 11 8 20 6 20 -3 0
-10 -9 -16 -20z"/>
<path d="M1110 700 c8 -5 20 -10 25 -10 6 0 3 5 -5 10 -8 5 -19 10 -25 10 -5
0 -3 -5 5 -10z"/>
<path d="M936 689 c6 -11 64 -42 69 -37 2 2 -14 13 -36 25 -21 12 -37 17 -33
12z"/>
<path d="M1158 683 c6 -2 18 -2 25 0 6 3 1 5 -13 5 -14 0 -19 -2 -12 -5z"/>
<path d="M1208 673 c6 -2 18 -2 25 0 6 3 1 5 -13 5 -14 0 -19 -2 -12 -5z"/>
<path d="M846 639 c-25 -42 -16 -44 11 -3 12 19 19 34 15 34 -4 0 -16 -14 -26
-31z"/>
<path d="M1030 640 c8 -5 22 -9 30 -9 10 0 8 3 -5 9 -27 12 -43 12 -25 0z"/>
<path d="M1080 626 c0 -2 7 -7 16 -10 8 -3 12 -2 9 4 -6 10 -25 14 -25 6z"/>
<path d="M1127 609 c7 -7 15 -10 18 -7 3 3 -2 9 -12 12 -14 6 -15 5 -6 -5z"/>
<path d="M821 574 c0 -11 3 -14 6 -6 3 7 2 16 -1 19 -3 4 -6 -2 -5 -13z"/>
<path d="M1228 583 c7 -3 16 -2 19 1 4 3 -2 6 -13 5 -11 0 -14 -3 -6 -6z"/>
<path d="M850 569 c-13 -9 -13 -10 1 -6 9 3 23 0 30 -6 11 -10 11 -9 0 6 -7 9
-14 17 -15 17 0 0 -8 -5 -16 -11z"/>
<path d="M1268 573 c7 -3 16 -2 19 1 4 3 -2 6 -13 5 -11 0 -14 -3 -6 -6z"/>
<path d="M908 553 c7 -3 16 -2 19 1 4 3 -2 6 -13 5 -11 0 -14 -3 -6 -6z"/>
<path d="M950 550 c8 -5 22 -9 30 -9 10 0 8 3 -5 9 -27 12 -43 12 -25 0z"/>
<path d="M1088 543 c6 -2 18 -2 25 0 6 3 1 5 -13 5 -14 0 -19 -2 -12 -5z"/>
<path d="M1140 540 c8 -5 20 -10 25 -10 6 0 3 5 -5 10 -8 5 -19 10 -25 10 -5
0 -3 -5 5 -10z"/>
<path d="M1180 536 c0 -2 7 -7 16 -10 8 -3 12 -2 9 4 -6 10 -25 14 -25 6z"/>
<path d="M1250 516 c0 -2 7 -7 16 -10 8 -3 12 -2 9 4 -6 10 -25 14 -25 6z"/>
<path d="M696 463 c-6 -14 -5 -15 5 -6 7 7 10 15 7 18 -3 3 -9 -2 -12 -12z"/>
<path d="M686 423 c-6 -14 -5 -15 5 -6 7 7 10 15 7 18 -3 3 -9 -2 -12 -12z"/>
<path d="M681 383 c-2 -35 9 -53 43 -69 28 -13 29 -13 12 0 -10 8 -23 17 -28
18 -5 2 -13 19 -18 38 -5 22 -8 27 -9 13z"/>
<path d="M767 299 c7 -7 15 -10 18 -7 3 3 -2 9 -12 12 -14 6 -15 5 -6 -5z"/>
<path d="M810 290 c8 -5 20 -10 25 -10 6 0 3 5 -5 10 -8 5 -19 10 -25 10 -5 0
-3 -5 5 -10z"/>
<path d="M857 293 c-3 -5 8 -8 23 -8 15 0 26 3 23 8 -2 4 -13 7 -23 7 -10 0
-21 -3 -23 -7z"/>
<path d="M928 283 c6 -2 18 -2 25 0 6 3 1 5 -13 5 -14 0 -19 -2 -12 -5z"/>
<path d="M978 273 c6 -2 18 -2 25 0 6 3 1 5 -13 5 -14 0 -19 -2 -12 -5z"/>
<path d="M1041 266 c2 -2 15 -9 29 -15 24 -11 24 -11 6 3 -16 13 -49 24 -35
12z"/>
<path d="M1128 233 c7 -3 16 -2 19 1 4 3 -2 6 -13 5 -11 0 -14 -3 -6 -6z"/>
<path d="M1168 228 c5 -5 16 -8 23 -6 8 3 3 7 -10 11 -17 4 -21 3 -13 -5z"/>
<path d="M1238 83 c7 -3 16 -2 19 1 4 3 -2 6 -13 5 -11 0 -14 -3 -6 -6z"/>
<path d="M1278 73 c7 -3 16 -2 19 1 4 3 -2 6 -13 5 -11 0 -14 -3 -6 -6z"/>
</g>
</svg>
